# xmcd CD database file
#
# Track frame offsets:
#	150
#	18515
#	37781
#
# Disc length: 746 seconds
#
# Revision: 0
# Processed by: cddbd v1.5.1PL0 Copyright (c) Steve Scherf et al.
# Submitted via: CDex 1.51
#
DISCID=1602e803
DTITLE=I WISH - キミと僕 (EP)
DYEAR=2004
DGENRE=Pop
TTITLE0=キミと僕
TTITLE1=Tomorrow
TTITLE2=キミと僕　（オリジナル・カラオケ）
EXTD=YEAR: 2004
EXTT0=
EXTT1=
EXTT2=
PLAYORDER=
